<svg width="167" height="105" viewBox="0 0 167 105" fill="none" xmlns="http://www.w3.org/2000/svg">
<path d="M142.632 67.8125H24.354V89.6875H142.632V67.8125ZM152.697 63.3146L152.847 63.5849L153.008 64.0259L153.07 64.4573V92.9688C153.07 94.6299 151.106 96.0028 148.56 96.2203L147.851 96.25H19.1353C16.4932 96.25 14.3097 95.0158 13.9642 93.4141L13.9165 92.9688V64.5339L13.9293 64.3024L14.0049 63.9284C14.0755 63.693 14.1838 63.469 14.3266 63.2568L33.5268 36.9252C34.2708 35.9048 35.7827 35.2049 37.5159 35.0459L38.2707 35.0114L55.9436 35.0081L50.4539 41.0029L49.9803 41.5706L41.6176 41.5713L27.2626 61.2491H139.654L125.548 42.2356L131.549 35.6849C132.012 35.9074 132.418 36.1794 132.745 36.4924L133.111 36.9055L152.697 63.3146ZM92.9994 8.99352L93.6354 9.19027L129.736 22.329C132.02 23.1601 132.927 24.9166 131.955 26.4132L131.642 26.814L112.113 48.1294L120.031 48.132C122.913 48.132 125.25 49.6011 125.25 51.4133C125.25 53.0745 123.286 54.4473 120.739 54.6648L120.031 54.6945L106.101 54.6919L106.094 54.705H77.7182L77.6966 54.6919L46.9686 54.6945C44.0864 54.6945 41.7498 53.2254 41.7498 51.4133C41.7498 49.7521 43.7131 48.3792 46.2604 48.1622L46.9686 48.132L59.6536 48.1294L58.3903 47.6713C56.1068 46.8401 55.1993 45.0835 56.1717 43.587L56.4839 43.1861L86.5205 10.3923C87.8384 8.95275 90.6252 8.38067 92.9994 8.99352ZM92.9346 16.517L68.1067 43.624L80.4799 48.1294H100.082L120.017 26.3733L92.9346 16.517Z" fill="#0B9721"/>
</svg>
