<svg width="112" height="86" viewBox="0 0 112 86" fill="none" xmlns="http://www.w3.org/2000/svg">
<path d="M39.5294 68.8C35.9059 68.8 32.8039 67.9579 30.2235 66.2738C27.6431 64.5896 26.3529 62.565 26.3529 60.2V8.6C26.3529 6.235 27.6431 4.21042 30.2235 2.52625C32.8039 0.842083 35.9059 0 39.5294 0H98.8235C102.447 0 105.549 0.842083 108.129 2.52625C110.71 4.21042 112 6.235 112 8.6V60.2C112 62.565 110.71 64.5896 108.129 66.2738C105.549 67.9579 102.447 68.8 98.8235 68.8H39.5294ZM39.5294 60.2H98.8235V8.6H39.5294V60.2ZM13.1765 86C9.55294 86 6.45098 85.1579 3.87059 83.4738C1.2902 81.7896 0 79.765 0 77.4V17.2H13.1765V77.4H85.6471V86H13.1765Z" fill="white"/>
</svg>
