<svg width="466" height="229" viewBox="0 0 466 229" fill="none" xmlns="http://www.w3.org/2000/svg">
<g clip-path="url(#clip0_35_2)">
<path d="M58.7778 189C52.7889 189 47.662 187.502 43.3972 184.505C39.1324 181.509 37 177.907 37 173.699V138.89L66.9444 114.982L82.4611 125.884L60.6833 143.097H209.317L188.083 126.267L203.6 115.365L233 138.89V173.699C233 177.907 230.868 181.509 226.603 184.505C222.338 187.502 217.211 189 211.222 189H58.7778ZM58.7778 173.699H211.222V158.398H58.7778V173.699ZM120.028 130.666L81.6444 103.698C77.4704 100.765 75.4287 97.163 75.5194 92.8915C75.6102 88.62 77.7426 85.018 81.9167 82.0853L135.272 44.5982C139.446 41.6656 144.619 40.1355 150.789 40.008C156.959 39.8805 162.131 41.283 166.306 44.2157L204.689 71.1835C208.863 74.1161 211.041 77.6863 211.222 81.894C211.404 86.1018 209.407 89.672 205.233 92.6046L150.789 130.857C146.615 133.789 141.488 135.224 135.408 135.16C129.329 135.096 124.202 133.598 120.028 130.666ZM189.444 82.0853L151.061 55.1176L97.1611 92.9872L135.544 119.955L189.444 82.0853Z" fill="#D2CA07"/>
<path d="M249.552 102H237.177V67.0909H249.654C253.166 67.0909 256.189 67.7898 258.723 69.1875C261.257 70.5739 263.206 72.5682 264.569 75.1705C265.944 77.7727 266.632 80.8864 266.632 84.5114C266.632 88.1477 265.944 91.2727 264.569 93.8864C263.206 96.5 261.245 98.5057 258.689 99.9034C256.143 101.301 253.098 102 249.552 102ZM244.558 95.6761H249.245C251.427 95.6761 253.262 95.2898 254.751 94.517C256.251 93.733 257.376 92.5227 258.126 90.8864C258.887 89.2386 259.268 87.1136 259.268 84.5114C259.268 81.9318 258.887 79.8239 258.126 78.1875C257.376 76.5511 256.257 75.3466 254.768 74.5739C253.279 73.8011 251.444 73.4148 249.262 73.4148H244.558V95.6761ZM268.259 102V67.0909H291.782V73.1761H275.64V81.4943H290.572V87.5795H275.64V95.9148H291.85V102H268.259ZM293.81 102V67.0909H301.19V82.483H301.651L314.213 67.0909H323.06L310.105 82.7216L323.213 102H314.384L304.821 87.6477L301.19 92.0795V102H293.81ZM344.626 67.0909H352.007V89.7614C352.007 92.3068 351.399 94.5341 350.183 96.4432C348.978 98.3523 347.291 99.8409 345.12 100.909C342.95 101.966 340.421 102.494 337.535 102.494C334.637 102.494 332.103 101.966 329.933 100.909C327.762 99.8409 326.075 98.3523 324.87 96.4432C323.666 94.5341 323.063 92.3068 323.063 89.7614V67.0909H330.444V89.1307C330.444 90.4602 330.734 91.642 331.313 92.6761C331.904 93.7102 332.734 94.5227 333.802 95.1136C334.87 95.7045 336.115 96 337.535 96C338.967 96 340.211 95.7045 341.268 95.1136C342.336 94.5227 343.16 93.7102 343.74 92.6761C344.331 91.642 344.626 90.4602 344.626 89.1307V67.0909ZM352.91 73.1761V67.0909H381.58V73.1761H370.893V102H363.597V73.1761H352.91ZM401.399 77.1307C401.263 75.7557 400.678 74.6875 399.643 73.9261C398.609 73.1648 397.206 72.7841 395.433 72.7841C394.229 72.7841 393.212 72.9545 392.382 73.2955C391.553 73.625 390.916 74.0852 390.473 74.6761C390.041 75.267 389.825 75.9375 389.825 76.6875C389.803 77.3125 389.933 77.858 390.217 78.3239C390.513 78.7898 390.916 79.1932 391.428 79.5341C391.939 79.8636 392.53 80.1534 393.2 80.4034C393.871 80.642 394.587 80.8466 395.348 81.017L398.484 81.767C400.007 82.108 401.405 82.5625 402.678 83.1307C403.95 83.6989 405.053 84.3977 405.984 85.2273C406.916 86.0568 407.638 87.0341 408.149 88.1591C408.672 89.2841 408.939 90.5739 408.95 92.0284C408.939 94.1648 408.393 96.017 407.314 97.5852C406.246 99.142 404.7 100.352 402.678 101.216C400.666 102.068 398.24 102.494 395.399 102.494C392.581 102.494 390.126 102.062 388.035 101.199C385.956 100.335 384.331 99.0568 383.16 97.3636C382.001 95.6591 381.393 93.5511 381.337 91.0398H388.479C388.558 92.2102 388.893 93.1875 389.484 93.9716C390.087 94.7443 390.888 95.3295 391.888 95.7273C392.899 96.1136 394.041 96.3068 395.314 96.3068C396.564 96.3068 397.649 96.125 398.57 95.7614C399.501 95.3977 400.223 94.892 400.734 94.2443C401.246 93.5966 401.501 92.8523 401.501 92.0114C401.501 91.2273 401.268 90.5682 400.803 90.0341C400.348 89.5 399.678 89.0455 398.791 88.6705C397.916 88.2955 396.842 87.9545 395.57 87.6477L391.768 86.6932C388.825 85.9773 386.501 84.858 384.797 83.3352C383.092 81.8125 382.246 79.7614 382.257 77.1818C382.246 75.0682 382.808 73.2216 383.945 71.642C385.092 70.0625 386.666 68.8295 388.666 67.9432C390.666 67.0568 392.939 66.6136 395.484 66.6136C398.075 66.6136 400.337 67.0568 402.268 67.9432C404.212 68.8295 405.723 70.0625 406.803 71.642C407.882 73.2216 408.439 75.0511 408.473 77.1307H401.399ZM442.154 84.5455C442.154 88.3523 441.433 91.5909 439.989 94.2614C438.558 96.9318 436.603 98.9716 434.126 100.381C431.66 101.778 428.887 102.477 425.808 102.477C422.705 102.477 419.921 101.773 417.455 100.364C414.989 98.9545 413.041 96.9148 411.609 94.2443C410.177 91.5739 409.461 88.3409 409.461 84.5455C409.461 80.7386 410.177 77.5 411.609 74.8295C413.041 72.1591 414.989 70.125 417.455 68.7273C419.921 67.3182 422.705 66.6136 425.808 66.6136C428.887 66.6136 431.66 67.3182 434.126 68.7273C436.603 70.125 438.558 72.1591 439.989 74.8295C441.433 77.5 442.154 80.7386 442.154 84.5455ZM434.671 84.5455C434.671 82.0795 434.302 80 433.563 78.3068C432.836 76.6136 431.808 75.3295 430.478 74.4545C429.149 73.5795 427.592 73.142 425.808 73.142C424.024 73.142 422.467 73.5795 421.137 74.4545C419.808 75.3295 418.774 76.6136 418.035 78.3068C417.308 80 416.944 82.0795 416.944 84.5455C416.944 87.0114 417.308 89.0909 418.035 90.7841C418.774 92.4773 419.808 93.7614 421.137 94.6364C422.467 95.5114 424.024 95.9489 425.808 95.9489C427.592 95.9489 429.149 95.5114 430.478 94.6364C431.808 93.7614 432.836 92.4773 433.563 90.7841C434.302 89.0909 434.671 87.0114 434.671 84.5455ZM264.509 160V125.091H288.032V131.176H271.89V139.494H286.822V145.58H271.89V153.915H288.1V160H264.509ZM306.236 139.665V145.426H290.315V139.665H306.236ZM314.042 125.091L322.48 151.614H322.804L331.258 125.091H339.44L327.406 160H317.894L305.843 125.091H314.042ZM369.912 142.545C369.912 146.352 369.191 149.591 367.748 152.261C366.316 154.932 364.361 156.972 361.884 158.381C359.418 159.778 356.645 160.477 353.566 160.477C350.464 160.477 347.679 159.773 345.214 158.364C342.748 156.955 340.799 154.915 339.367 152.244C337.935 149.574 337.219 146.341 337.219 142.545C337.219 138.739 337.935 135.5 339.367 132.83C340.799 130.159 342.748 128.125 345.214 126.727C347.679 125.318 350.464 124.614 353.566 124.614C356.645 124.614 359.418 125.318 361.884 126.727C364.361 128.125 366.316 130.159 367.748 132.83C369.191 135.5 369.912 138.739 369.912 142.545ZM362.429 142.545C362.429 140.08 362.06 138 361.321 136.307C360.594 134.614 359.566 133.33 358.236 132.455C356.907 131.58 355.35 131.142 353.566 131.142C351.782 131.142 350.225 131.58 348.895 132.455C347.566 133.33 346.532 134.614 345.793 136.307C345.066 138 344.702 140.08 344.702 142.545C344.702 145.011 345.066 147.091 345.793 148.784C346.532 150.477 347.566 151.761 348.895 152.636C350.225 153.511 351.782 153.949 353.566 153.949C355.35 153.949 356.907 153.511 358.236 152.636C359.566 151.761 360.594 150.477 361.321 148.784C362.06 147.091 362.429 145.011 362.429 142.545ZM368.616 131.176V125.091H397.287V131.176H386.599V160H379.304V131.176H368.616ZM398.168 160V125.091H421.691V131.176H405.549V139.494H420.481V145.58H405.549V153.915H421.759V160H398.168Z" fill="#D2CA07"/>
</g>
<defs>
<clipPath id="clip0_35_2">
<rect width="466" height="229" fill="white"/>
</clipPath>
</defs>
</svg>
