<svg width="51" height="61" viewBox="0 0 51 61" fill="none" xmlns="http://www.w3.org/2000/svg">
<path d="M2.8061 1.60486C2.10317 2.11027 1.54549 2.71061 1.16499 3.3715C0.784482 4.03239 0.588623 4.74086 0.588623 5.45636C0.588623 6.17185 0.784482 6.88032 1.16499 7.54122C1.54549 8.20211 2.10317 8.80244 2.8061 9.30786L32.2265 30.5048L2.8061 51.7017C1.38833 52.7231 0.591834 54.1086 0.591834 55.5532C0.591834 56.9978 1.38833 58.3832 2.8061 59.4047C4.22387 60.4261 6.14678 61 8.15181 61C10.1568 61 12.0798 60.4261 13.4975 59.4047L48.3015 34.3289C49.0045 33.8235 49.5621 33.2232 49.9426 32.5623C50.3231 31.9014 50.519 31.1929 50.519 30.4774C50.519 29.7619 50.3231 29.0535 49.9426 28.3926C49.5621 27.7317 49.0045 27.1314 48.3015 26.6259L13.4975 1.55023C10.6161 -0.525759 5.7633 -0.525758 2.8061 1.60486Z" fill="white"/>
</svg>
