<svg width="99" height="88" viewBox="0 0 99 88" fill="none" xmlns="http://www.w3.org/2000/svg">
<path d="M91.3 87.4496L56.65 57.0349C53.9 58.966 50.7375 60.4947 47.1625 61.6212C43.5875 62.7477 39.7833 63.3109 35.75 63.3109C25.7583 63.3109 17.3021 60.2735 10.3813 54.1986C3.46042 48.1237 0 40.701 0 31.9306C0 23.1602 3.46042 15.7376 10.3813 9.66265C17.3021 3.58775 25.7583 0.550293 35.75 0.550293C45.7417 0.550293 54.1979 3.58775 61.1188 9.66265C68.0396 15.7376 71.5 23.1602 71.5 31.9306C71.5 35.471 70.8583 38.8101 69.575 41.9482C68.2917 45.0862 66.55 47.8621 64.35 50.276L99 80.6908L91.3 87.4496ZM35.75 53.6554C42.625 53.6554 48.4688 51.5433 53.2812 47.319C58.0938 43.0948 60.5 37.9653 60.5 31.9306C60.5 25.8959 58.0938 20.7665 53.2812 16.5422C48.4688 12.3179 42.625 10.2058 35.75 10.2058C28.875 10.2058 23.0312 12.3179 18.2188 16.5422C13.4062 20.7665 11 25.8959 11 31.9306C11 37.9653 13.4062 43.0948 18.2188 47.319C23.0312 51.5433 28.875 53.6554 35.75 53.6554Z" fill="black"/>
</svg>
