<svg width="100" height="94" viewBox="0 0 100 94" fill="none" xmlns="http://www.w3.org/2000/svg">
<path d="M50 47C43.125 47 37.2396 44.699 32.3438 40.0969C27.4479 35.4948 25 29.9625 25 23.5C25 17.0375 27.4479 11.5052 32.3438 6.90312C37.2396 2.30104 43.125 0 50 0C56.875 0 62.7604 2.30104 67.6562 6.90312C72.5521 11.5052 75 17.0375 75 23.5C75 29.9625 72.5521 35.4948 67.6562 40.0969C62.7604 44.699 56.875 47 50 47ZM0 94V77.55C0 74.2208 0.911458 71.1609 2.73438 68.3703C4.55729 65.5797 6.97917 63.45 10 61.9812C16.4583 58.9458 23.0208 56.6693 29.6875 55.1516C36.3542 53.6339 43.125 52.875 50 52.875C56.875 52.875 63.6458 53.6339 70.3125 55.1516C76.9792 56.6693 83.5417 58.9458 90 61.9812C93.0208 63.45 95.4427 65.5797 97.2656 68.3703C99.0885 71.1609 100 74.2208 100 77.55V94H0ZM12.5 82.25H87.5V77.55C87.5 76.4729 87.2135 75.4937 86.6406 74.6125C86.0677 73.7312 85.3125 73.0458 84.375 72.5562C78.75 69.9125 73.0729 67.9297 67.3438 66.6078C61.6146 65.2859 55.8333 64.625 50 64.625C44.1667 64.625 38.3854 65.2859 32.6562 66.6078C26.9271 67.9297 21.25 69.9125 15.625 72.5562C14.6875 73.0458 13.9323 73.7312 13.3594 74.6125C12.7865 75.4937 12.5 76.4729 12.5 77.55V82.25ZM50 35.25C53.4375 35.25 56.3802 34.0995 58.8281 31.7984C61.276 29.4974 62.5 26.7313 62.5 23.5C62.5 20.2687 61.276 17.5026 58.8281 15.2016C56.3802 12.9005 53.4375 11.75 50 11.75C46.5625 11.75 43.6198 12.9005 41.1719 15.2016C38.724 17.5026 37.5 20.2687 37.5 23.5C37.5 26.7313 38.724 29.4974 41.1719 31.7984C43.6198 34.0995 46.5625 35.25 50 35.25Z" fill="white"/>
</svg>
