<svg width="112" height="78" viewBox="0 0 112 78" fill="none" xmlns="http://www.w3.org/2000/svg">
<path d="M0 78V67.7625C0 63.1042 1.71111 59.3125 5.13333 56.3875C8.55556 53.4625 13.0667 52 18.6667 52C19.6778 52 20.65 52.0271 21.5833 52.0812C22.5167 52.1354 23.4111 52.2708 24.2667 52.4875C23.1778 54.7625 22.3611 57.1458 21.8167 59.6375C21.2722 62.1292 21 64.7292 21 67.4375V78H0ZM28 78V67.4375C28 63.9708 28.6806 60.8021 30.0417 57.9312C31.4028 55.0604 33.3278 52.5417 35.8167 50.375C38.3056 48.2083 41.2806 46.5833 44.7417 45.5C48.2028 44.4167 51.9556 43.875 56 43.875C60.1222 43.875 63.9139 44.4167 67.375 45.5C70.8361 46.5833 73.8111 48.2083 76.3 50.375C78.7889 52.5417 80.6944 55.0604 82.0167 57.9312C83.3389 60.8021 84 63.9708 84 67.4375V78H28ZM91 78V67.4375C91 64.6208 90.7472 61.9667 90.2417 59.475C89.7361 56.9833 88.9778 54.6542 87.9667 52.4875C88.8222 52.2708 89.6972 52.1354 90.5917 52.0812C91.4861 52.0271 92.4 52 93.3333 52C98.9333 52 103.444 53.4354 106.867 56.3062C110.289 59.1771 112 62.9958 112 67.7625V78H91ZM37.9167 65H74.2C73.4222 62.8333 71.2639 60.9375 67.725 59.3125C64.1861 57.6875 60.2778 56.875 56 56.875C51.7222 56.875 47.8139 57.6875 44.275 59.3125C40.7361 60.9375 38.6167 62.8333 37.9167 65ZM18.6667 45.5C16.1 45.5 13.9028 44.2271 12.075 41.6812C10.2472 39.1354 9.33333 36.075 9.33333 32.5C9.33333 28.8167 10.2472 25.7292 12.075 23.2375C13.9028 20.7458 16.1 19.5 18.6667 19.5C21.3111 19.5 23.5278 20.7458 25.3167 23.2375C27.1056 25.7292 28 28.8167 28 32.5C28 36.075 27.1056 39.1354 25.3167 41.6812C23.5278 44.2271 21.3111 45.5 18.6667 45.5ZM93.3333 45.5C90.7667 45.5 88.5694 44.2271 86.7417 41.6812C84.9139 39.1354 84 36.075 84 32.5C84 28.8167 84.9139 25.7292 86.7417 23.2375C88.5694 20.7458 90.7667 19.5 93.3333 19.5C95.9778 19.5 98.1944 20.7458 99.9833 23.2375C101.772 25.7292 102.667 28.8167 102.667 32.5C102.667 36.075 101.772 39.1354 99.9833 41.6812C98.1944 44.2271 95.9778 45.5 93.3333 45.5ZM56 39C52.1111 39 48.8056 37.1042 46.0833 33.3125C43.3611 29.5208 42 24.9167 42 19.5C42 13.975 43.3611 9.34375 46.0833 5.60625C48.8056 1.86875 52.1111 0 56 0C59.9667 0 63.2917 1.86875 65.975 5.60625C68.6583 9.34375 70 13.975 70 19.5C70 24.9167 68.6583 29.5208 65.975 33.3125C63.2917 37.1042 59.9667 39 56 39ZM56 26C57.3222 26 58.4306 25.3771 59.325 24.1312C60.2194 22.8854 60.6667 21.3417 60.6667 19.5C60.6667 17.6583 60.2194 16.1146 59.325 14.8687C58.4306 13.6229 57.3222 13 56 13C54.6778 13 53.5694 13.6229 52.675 14.8687C51.7806 16.1146 51.3333 17.6583 51.3333 19.5C51.3333 21.3417 51.7806 22.8854 52.675 24.1312C53.5694 25.3771 54.6778 26 56 26Z" fill="white"/>
</svg>
