<svg width="94" height="84" viewBox="0 0 94 84" fill="none" xmlns="http://www.w3.org/2000/svg">
<path d="M47 32.6667H73.1111V23.3333H47V32.6667ZM47 60.6667H73.1111V51.3333H47V60.6667ZM31.3333 37.3333C34.2056 37.3333 36.6644 36.4194 38.7097 34.5917C40.7551 32.7639 41.7778 30.5667 41.7778 28C41.7778 25.4333 40.7551 23.2361 38.7097 21.4083C36.6644 19.5806 34.2056 18.6667 31.3333 18.6667C28.4611 18.6667 26.0023 19.5806 23.9569 21.4083C21.9116 23.2361 20.8889 25.4333 20.8889 28C20.8889 30.5667 21.9116 32.7639 23.9569 34.5917C26.0023 36.4194 28.4611 37.3333 31.3333 37.3333ZM31.3333 65.3333C34.2056 65.3333 36.6644 64.4194 38.7097 62.5917C40.7551 60.7639 41.7778 58.5667 41.7778 56C41.7778 53.4333 40.7551 51.2361 38.7097 49.4083C36.6644 47.5806 34.2056 46.6667 31.3333 46.6667C28.4611 46.6667 26.0023 47.5806 23.9569 49.4083C21.9116 51.2361 20.8889 53.4333 20.8889 56C20.8889 58.5667 21.9116 60.7639 23.9569 62.5917C26.0023 64.4194 28.4611 65.3333 31.3333 65.3333ZM10.4444 84C7.57222 84 5.11343 83.0861 3.06806 81.2583C1.02269 79.4306 0 77.2333 0 74.6667V9.33333C0 6.76667 1.02269 4.56944 3.06806 2.74167C5.11343 0.913889 7.57222 0 10.4444 0H83.5556C86.4278 0 88.8866 0.913889 90.9319 2.74167C92.9773 4.56944 94 6.76667 94 9.33333V74.6667C94 77.2333 92.9773 79.4306 90.9319 81.2583C88.8866 83.0861 86.4278 84 83.5556 84H10.4444ZM10.4444 74.6667H83.5556V9.33333H10.4444V74.6667Z" fill="#F1CE50"/>
</svg>
