<svg width="85" height="74" viewBox="0 0 85 74" fill="none" xmlns="http://www.w3.org/2000/svg">
<path d="M9.44444 74C6.84722 74 4.62384 73.2754 2.77431 71.8262C0.924769 70.3771 0 68.635 0 66.6V14.8C0 12.765 0.924769 11.0229 2.77431 9.57375C4.62384 8.12458 6.84722 7.4 9.44444 7.4H14.1667V0H23.6111V7.4H61.3889V0H70.8333V7.4H75.5556C78.1528 7.4 80.3762 8.12458 82.2257 9.57375C84.0752 11.0229 85 12.765 85 14.8V66.6C85 68.635 84.0752 70.3771 82.2257 71.8262C80.3762 73.2754 78.1528 74 75.5556 74H9.44444ZM9.44444 66.6H75.5556V29.6H9.44444V66.6ZM9.44444 22.2H75.5556V14.8H9.44444V22.2ZM42.5 44.4C41.162 44.4 40.0405 44.0454 39.1354 43.3363C38.2303 42.6271 37.7778 41.7483 37.7778 40.7C37.7778 39.6517 38.2303 38.7729 39.1354 38.0638C40.0405 37.3546 41.162 37 42.5 37C43.838 37 44.9595 37.3546 45.8646 38.0638C46.7697 38.7729 47.2222 39.6517 47.2222 40.7C47.2222 41.7483 46.7697 42.6271 45.8646 43.3363C44.9595 44.0454 43.838 44.4 42.5 44.4ZM23.6111 44.4C22.2731 44.4 21.1516 44.0454 20.2465 43.3363C19.3414 42.6271 18.8889 41.7483 18.8889 40.7C18.8889 39.6517 19.3414 38.7729 20.2465 38.0638C21.1516 37.3546 22.2731 37 23.6111 37C24.9491 37 26.0706 37.3546 26.9757 38.0638C27.8808 38.7729 28.3333 39.6517 28.3333 40.7C28.3333 41.7483 27.8808 42.6271 26.9757 43.3363C26.0706 44.0454 24.9491 44.4 23.6111 44.4ZM61.3889 44.4C60.0509 44.4 58.9294 44.0454 58.0243 43.3363C57.1192 42.6271 56.6667 41.7483 56.6667 40.7C56.6667 39.6517 57.1192 38.7729 58.0243 38.0638C58.9294 37.3546 60.0509 37 61.3889 37C62.7268 37 63.8484 37.3546 64.7535 38.0638C65.6586 38.7729 66.1111 39.6517 66.1111 40.7C66.1111 41.7483 65.6586 42.6271 64.7535 43.3363C63.8484 44.0454 62.7268 44.4 61.3889 44.4ZM42.5 59.2C41.162 59.2 40.0405 58.8454 39.1354 58.1362C38.2303 57.4271 37.7778 56.5483 37.7778 55.5C37.7778 54.4517 38.2303 53.5729 39.1354 52.8638C40.0405 52.1546 41.162 51.8 42.5 51.8C43.838 51.8 44.9595 52.1546 45.8646 52.8638C46.7697 53.5729 47.2222 54.4517 47.2222 55.5C47.2222 56.5483 46.7697 57.4271 45.8646 58.1362C44.9595 58.8454 43.838 59.2 42.5 59.2ZM23.6111 59.2C22.2731 59.2 21.1516 58.8454 20.2465 58.1362C19.3414 57.4271 18.8889 56.5483 18.8889 55.5C18.8889 54.4517 19.3414 53.5729 20.2465 52.8638C21.1516 52.1546 22.2731 51.8 23.6111 51.8C24.9491 51.8 26.0706 52.1546 26.9757 52.8638C27.8808 53.5729 28.3333 54.4517 28.3333 55.5C28.3333 56.5483 27.8808 57.4271 26.9757 58.1362C26.0706 58.8454 24.9491 59.2 23.6111 59.2ZM61.3889 59.2C60.0509 59.2 58.9294 58.8454 58.0243 58.1362C57.1192 57.4271 56.6667 56.5483 56.6667 55.5C56.6667 54.4517 57.1192 53.5729 58.0243 52.8638C58.9294 52.1546 60.0509 51.8 61.3889 51.8C62.7268 51.8 63.8484 52.1546 64.7535 52.8638C65.6586 53.5729 66.1111 54.4517 66.1111 55.5C66.1111 56.5483 65.6586 57.4271 64.7535 58.1362C63.8484 58.8454 62.7268 59.2 61.3889 59.2Z" fill="black"/>
</svg>
