<svg width="89" height="88" viewBox="0 0 89 88" fill="none" xmlns="http://www.w3.org/2000/svg">
<path d="M15.9826 35.0568L24.6399 38.674C25.6758 36.6279 26.7487 34.6549 27.8586 32.7549C28.9685 30.855 30.1894 28.955 31.5213 27.055L25.3058 25.8493L15.9826 35.0568ZM31.7433 44.1547L44.3962 56.541C47.504 55.3718 50.8337 53.5814 54.3854 51.1699C57.9371 48.7585 61.2668 46.0181 64.3745 42.949C69.5541 37.8337 73.6052 32.152 76.528 25.9041C79.4508 19.6561 80.7271 13.9014 80.3572 8.64C75.0296 8.27462 69.1841 9.53518 62.8207 12.4217C56.4572 15.3081 50.6857 19.309 45.5061 24.4243C42.3984 27.4935 39.6236 30.7819 37.1818 34.2895C34.74 37.7971 32.9272 41.0855 31.7433 44.1547ZM51.4996 37.0298C49.7978 35.3491 48.9468 33.2847 48.9468 30.8367C48.9468 28.3887 49.7978 26.3243 51.4996 24.6435C53.2015 22.9628 55.3103 22.1224 57.8261 22.1224C60.3419 22.1224 62.4507 22.9628 64.1525 24.6435C65.8544 26.3243 66.7053 28.3887 66.7053 30.8367C66.7053 33.2847 65.8544 35.3491 64.1525 37.0298C62.4507 38.7106 60.3419 39.5509 57.8261 39.5509C55.3103 39.5509 53.2015 38.7106 51.4996 37.0298ZM53.6084 72.2157L62.9317 63.0082L61.7108 56.8698C59.7869 58.1852 57.8631 59.3727 55.9392 60.4323C54.0154 61.4919 52.0176 62.5332 49.9458 63.5562L53.6084 72.2157ZM88.3485 0.638232C89.7544 9.48037 88.8849 18.085 85.7402 26.4522C82.5955 34.8193 77.1754 42.8028 69.4801 50.4027L71.6999 61.2544C71.9959 62.7159 71.9219 64.1408 71.4779 65.5293C71.034 66.9177 70.294 68.1235 69.2581 69.1465L50.6117 87.5615L41.2885 65.9677L22.3091 47.2239L0.443962 38.0164L18.9794 19.6013C20.0153 18.5783 21.2547 17.8475 22.6976 17.4091C24.1404 16.9706 25.6018 16.8975 27.0817 17.1898L38.0698 19.3821C45.7651 11.7822 53.8304 6.4112 62.2657 3.26895C70.701 0.126704 79.3953 -0.750203 88.3485 0.638232ZM8.32429 61.1448C10.9141 58.5871 14.0773 57.29 17.814 57.2535C21.5507 57.2169 24.7139 58.4775 27.3037 61.0351C29.8935 63.5928 31.1699 66.7168 31.1329 70.4071C31.0959 74.0974 29.7825 77.2214 27.1927 79.779C25.3428 81.6059 22.2536 83.177 17.925 84.4924C13.5963 85.8077 7.62135 86.9769 0 88C1.03591 80.4732 2.21981 74.5724 3.5517 70.2975C4.88358 66.0225 6.47445 62.9716 8.32429 61.1448ZM14.6508 67.2831C13.9108 68.0138 13.1709 69.3475 12.4309 71.284C11.691 73.2205 11.1731 75.1752 10.8771 77.1483C12.8749 76.856 14.8542 76.3627 16.8151 75.6685C18.7759 74.9743 20.1263 74.2618 20.8662 73.5311C21.7542 72.6541 22.2351 71.5946 22.3091 70.3523C22.3831 69.11 21.9761 68.0504 21.0882 67.1735C20.2003 66.2966 19.1274 65.8764 17.8695 65.9129C16.6116 65.9495 15.5387 66.4062 14.6508 67.2831Z" fill="white"/>
</svg>
