<svg width="97" height="83" viewBox="0 0 97 83" fill="none" xmlns="http://www.w3.org/2000/svg">
<path d="M35.2289 83L33.2985 69.72C32.2529 69.3742 31.2676 68.9592 30.3427 68.475C29.4177 67.9908 28.5129 67.4721 27.6281 66.9187L13.2711 72.1062L0 52.3937L12.4266 44.3013C12.3462 43.8171 12.306 43.3502 12.306 42.9006V40.0994C12.306 39.6498 12.3462 39.1829 12.4266 38.6987L0 30.6062L13.2711 10.8938L27.6281 16.0812C28.5129 15.5279 29.4378 15.0092 30.403 14.525C31.3682 14.0408 32.3333 13.6258 33.2985 13.28L35.2289 0H61.7711L63.7015 13.28C64.7471 13.6258 65.7324 14.0408 66.6573 14.525C67.5823 15.0092 68.4871 15.5279 69.3719 16.0812L83.7289 10.8938L97 30.6062L84.5734 38.6987C84.6538 39.1829 84.694 39.6498 84.694 40.0994V42.9006C84.694 43.3502 84.6136 43.8171 84.4527 44.3013L96.8794 52.3937L83.6082 72.1062L69.3719 66.9187C68.4871 67.4721 67.5622 67.9908 66.597 68.475C65.6318 68.9592 64.6667 69.3742 63.7015 69.72L61.7711 83H35.2289ZM43.6741 74.7H53.2052L54.8943 63.7025C57.3876 63.1492 59.7 62.3365 61.8315 61.2644C63.9629 60.1923 65.9134 58.8954 67.6828 57.3737L79.6269 61.6275L84.3321 54.5725L73.9565 47.8288C74.3586 46.8604 74.6401 45.8402 74.801 44.7681C74.9619 43.696 75.0423 42.6067 75.0423 41.5C75.0423 40.3933 74.9619 39.304 74.801 38.2319C74.6401 37.1598 74.3586 36.1396 73.9565 35.1712L84.3321 28.4275L79.6269 21.3725L67.6828 25.73C65.9134 24.1392 63.9629 22.8077 61.8315 21.7356C59.7 20.6635 57.3876 19.8508 54.8943 19.2975L53.3259 8.3H43.7948L42.1057 19.2975C39.6124 19.8508 37.3 20.6635 35.1685 21.7356C33.0371 22.8077 31.0867 24.1046 29.3172 25.6262L17.3731 21.3725L12.6679 28.4275L23.0435 35.0675C22.6414 36.105 22.3599 37.1425 22.199 38.18C22.0381 39.2175 21.9577 40.3242 21.9577 41.5C21.9577 42.6067 22.0381 43.6787 22.199 44.7162C22.3599 45.7537 22.6414 46.7912 23.0435 47.8288L12.6679 54.5725L17.3731 61.6275L29.3172 57.27C31.0867 58.8608 33.0371 60.1923 35.1685 61.2644C37.3 62.3365 39.6124 63.1492 42.1057 63.7025L43.6741 74.7ZM48.7413 56.025C53.4063 56.025 57.3876 54.6071 60.6853 51.7712C63.983 48.9354 65.6318 45.5117 65.6318 41.5C65.6318 37.4883 63.983 34.0646 60.6853 31.2288C57.3876 28.3929 53.4063 26.975 48.7413 26.975C43.9959 26.975 39.9944 28.3929 36.7369 31.2288C33.4795 34.0646 31.8507 37.4883 31.8507 41.5C31.8507 45.5117 33.4795 48.9354 36.7369 51.7712C39.9944 54.6071 43.9959 56.025 48.7413 56.025Z" fill="white"/>
</svg>
