<svg width="141" height="89" viewBox="0 0 141 89" fill="none" xmlns="http://www.w3.org/2000/svg">
<path d="M129.632 59.8125H11.354V81.6875H129.632V59.8125ZM139.697 55.3146L139.847 55.5849L140.008 56.0259L140.07 56.4573V84.9688C140.07 86.6299 138.106 88.0028 135.56 88.2203L134.851 88.25H6.13525C3.49317 88.25 1.30972 87.0158 0.964169 85.4141L0.916504 84.9688V56.5339L0.929308 56.3024L1.00494 55.9284C1.0755 55.693 1.18377 55.469 1.32663 55.2568L20.5268 28.9252C21.2708 27.9048 22.7827 27.2049 24.5159 27.0459L25.2707 27.0114L42.9436 27.0081L37.4539 33.0029L36.9803 33.5706L28.6176 33.5713L14.2626 53.2491H126.654L112.548 34.2356L118.549 27.6849C119.012 27.9074 119.418 28.1794 119.745 28.4924L120.111 28.9055L139.697 55.3146ZM79.9994 0.993525L80.6354 1.19027L116.736 14.329C119.02 15.1601 119.927 16.9166 118.955 18.4132L118.642 18.814L99.1125 40.1294L107.031 40.132C109.913 40.132 112.25 41.6011 112.25 43.4133C112.25 45.0745 110.286 46.4473 107.739 46.6648L107.031 46.6945L93.1005 46.6919L93.0942 46.705H64.7182L64.6966 46.6919L33.9686 46.6945C31.0864 46.6945 28.7498 45.2254 28.7498 43.4133C28.7498 41.7521 30.7131 40.3792 33.2604 40.1622L33.9686 40.132L46.6536 40.1294L45.3903 39.6713C43.1068 38.8401 42.1993 37.0835 43.1717 35.587L43.4839 35.1861L73.5205 2.39226C74.8384 0.95275 77.6252 0.380675 79.9994 0.993525ZM79.9346 8.51695L55.1067 35.624L67.4799 40.1294H87.0816L107.017 18.3733L79.9346 8.51695Z" fill="#0B9721"/>
</svg>
